<svg width="12" height="12" viewBox="0 0 12 12" fill="none" xmlns="http://www.w3.org/2000/svg">
<path d="M6.00005 4.93955L9.9323 1.0073C10.2252 0.714452 10.7 0.714452 10.9928 1.0073C11.2857 1.30015 11.2857 1.77495 10.9928 2.0678L7.06055 6.00005L10.9928 9.9323C11.2857 10.2252 11.2857 10.7 10.9928 10.9928C10.7 11.2857 10.2252 11.2857 9.9323 10.9928L6.00005 7.06055L2.0678 10.9928C1.77495 11.2857 1.30015 11.2857 1.0073 10.9928C0.714452 10.7 0.714452 10.2252 1.0073 9.9323L4.93955 6.00005L1.0073 2.0678C0.714452 1.77495 0.714452 1.30015 1.0073 1.0073C1.30015 0.714452 1.77495 0.714452 2.0678 1.0073L6.00005 4.93955Z" fill="#1A1A1A"/>
</svg>
